<svg xmlns="http://www.w3.org/2000/svg" width="637" height="637"><path d="M297 1.062C205.202 7.853 122.096 52.124 66.697 123.744c-20.349 26.309-38.866 60.732-49.356 91.756C-7.248 288.221-4.963 366.989 23.795 438 45 490.36 80.751 536.845 126.5 571.54c37.759 28.635 84.722 49.652 130.5 58.401 24.119 4.609 33.555 5.444 61.5 5.444 34.115 0 54.473-2.639 85-11.02C497.935 598.438 576.511 528.607 613.205 438c12.516-30.905 20.836-66.841 22.457-97.004.357-6.639 1.029-12.305 1.494-12.592.464-.287.844-5.472.844-11.522 0-7.079-.356-10.78-1-10.382-.626.387-1-1.742-1-5.697 0-8.309-2.4-28.554-5.015-42.303-17.04-89.585-72.448-168.076-151.345-214.392C424.861 11.949 359.155-3.537 297 1.062m20.154 72.025c-.506 1.327-5.877 14.113-11.935 28.413-11.139 26.293-32.981 78.057-104.224 247-21.569 51.15-46.063 109.2-54.431 129l-15.213 36 27.475.266c15.111.146 27.65.091 27.865-.123.214-.215 9.098-21.034 19.741-46.267 10.644-25.232 31.798-75.351 47.01-111.376 15.212-36.025 36.05-85.398 46.307-109.717 10.257-24.32 18.738-44.12 18.845-44 .107.119 11.31 26.542 24.896 58.717 27.089 64.157 27.656 65.9 25.657 78.848-3.311 21.44-19.301 38.333-40.53 42.819-7.932 1.676-17.997 1.169-24.861-1.253-2.265-.799-4.441-1.107-4.837-.683-.824.879-18.662 43.034-19.119 45.178-.386 1.816 10.685 5.642 22.067 7.627 33.154 5.782 66.695-5.417 90.9-30.35 3.997-4.117 7.415-7.306 7.596-7.086.181.22 11.408 26.672 24.949 58.782 13.541 32.111 24.792 58.555 25.003 58.766.211.211 12.752.264 27.868.118l27.484-.266-19.643-46.5c-38.613-91.402-128.061-303.465-150.793-357.5-8.561-20.35-15.924-37.411-16.361-37.913-.443-.508-1.204.157-1.716 1.5M.378 318c0 6.325.163 8.913.361 5.75.198-3.163.198-8.337 0-11.5-.198-3.163-.361-.575-.361 5.75" fill="undefined" fill-rule="evenodd"/></svg>